HIERARCHY
ROOT Hips
{
	OFFSET -0.179506 -22.333345 2.821913
	CHANNELS 6 Xposition Yposition Zposition Zrotation Yrotation Xrotation 
	JOINT LeftUpLeg
	{
		OFFSET 6.951974 -9.140623 -0.681533
		CHANNELS 3 Zrotation Yrotation Xrotation
		JOINT LeftLeg
		{
			OFFSET 3.427654 -37.519855 -0.449580
			CHANNELS 3 Zrotation Yrotation Xrotation
			JOINT LeftFoot
			{
				OFFSET -1.359570 -39.796059 -4.369333
				CHANNELS 3 Zrotation Yrotation Xrotation
				JOINT LeftToe
				{
					OFFSET 2.635814 -5.579078 11.928840
					CHANNELS 3 Zrotation Yrotation Xrotation
					End Site
					{
						OFFSET 0.000000 0.000000 0.000000
					}
				}
			}
		}
	}
	JOINT RightUpLeg
	{
		OFFSET -6.767048 -9.052170 -0.431982
		CHANNELS 3 Zrotation Yrotation Xrotation
		JOINT RightLeg
		{
			OFFSET -3.829005 -38.256897 -0.885003
			CHANNELS 3 Zrotation Yrotation Xrotation
			JOINT RightFoot
			{
				OFFSET 1.577377 -39.841461 -4.231180
				CHANNELS 3 Zrotation Yrotation Xrotation
				JOINT RightToe
				{
					OFFSET -2.537174 -4.814398 12.334795
					CHANNELS 3 Zrotation Yrotation Xrotation
					End Site
					{
						OFFSET 0.000000 0.000000 0.000000
					}
				}
			}
		}
	}
	JOINT Spine
	{
		OFFSET -0.253288 10.896323 -2.669631
		CHANNELS 3 Zrotation Yrotation Xrotation
		JOINT Spine1
		{
			OFFSET 0.548704 13.518043 0.109247
			CHANNELS 3 Zrotation Yrotation Xrotation
			JOINT Spine2
			{
				OFFSET 0.145701 5.292222 2.542457
				CHANNELS 3 Zrotation Yrotation Xrotation
				JOINT Neck
				{
					OFFSET -0.277840 21.387037 -4.285703
					CHANNELS 3 Zrotation Yrotation Xrotation
					JOINT Head
					{
						OFFSET 0.515184 6.496960 5.134897
						CHANNELS 3 Zrotation Yrotation Xrotation
						End Site
						{
							OFFSET 0.000000 0.000000 0.000000
						}
					}
				}
				JOINT LeftShoulder
				{
					OFFSET 7.884473 12.174932 -3.408961
					CHANNELS 3 Zrotation Yrotation Xrotation
					JOINT LeftArm
					{
						OFFSET 9.097692 3.046888 -0.886815
						CHANNELS 3 Zrotation Yrotation Xrotation
						JOINT LeftForeArm
						{
							OFFSET 25.961220 -1.277207 -2.745643
							CHANNELS 3 Zrotation Yrotation Xrotation
							JOINT LeftHand
							{
								OFFSET 24.923361 0.898606 -0.117091
								CHANNELS 3 Zrotation Yrotation Xrotation
								End Site
								{
									OFFSET 0.000000 0.000000 0.000000
								}
							}
						}
					}
				}
				JOINT RightShoulder
				{
					OFFSET -8.175920 11.883285 -3.861528
					CHANNELS 3 Zrotation Yrotation Xrotation
					JOINT RightArm
					{
						OFFSET -9.601238 3.255117 -0.914307
						CHANNELS 3 Zrotation Yrotation Xrotation
						JOINT RightForeArm
						{
							OFFSET -25.374195 -1.332924 -2.140099
							CHANNELS 3 Zrotation Yrotation Xrotation
							JOINT RightHand
							{
								OFFSET -25.529810 0.777228 -0.555919
								CHANNELS 3 Zrotation Yrotation Xrotation
								End Site
								{
									OFFSET 0.000000 0.000000 0.000000
								}
							}
						}
					}
				}
			}
		}
	}
}
MOTION
Frames: 10
Frame Time: 0.033333
-13.508265 -1.821479 85.991234 -122.389123 18.138514 95.050303 31.955836 11.825900 -30.006129 -6.898511 3.053232 51.742956 -0.657296 10.158865 -33.634916 nan nan nan -2.685842 -8.047760 -30.592669 10.960993 -19.232400 23.152829 4.085347 -1.017161 -1.187023 nan nan nan -20.965963 8.559980 18.481966 4.320194 -6.549687 16.611252 2.391650 -1.981048 -12.929571 9.869207 -1.745092 14.346980 25.630174 -22.555595 6.602395 -15.845145 -20.533577 10.345316 -63.110326 -61.248383 39.637660 155.592351 -76.492819 -131.551134 -5.089022 -22.232616 4.080673 22.682879 8.074962 10.138817 51.996647 7.238808 -3.252246 -51.896111 38.084154 -29.260157 -1.734437 9.203867 -11.244762 
-13.586416 -1.731131 86.048424 -122.811085 18.054883 94.765807 32.038628 12.049159 -29.353034 -6.919873 3.216735 51.435722 -0.563901 10.048063 -33.610850 nan nan nan -2.667822 -7.878332 -30.392106 10.889994 -19.043850 23.185153 4.068599 -0.884835 -1.158933 nan nan nan -21.034335 8.409700 18.074170 4.284382 -6.257566 17.014471 2.324722 -1.893272 -13.101692 9.952237 -1.708224 14.540420 25.442432 -22.527533 6.790904 -16.009943 -20.392673 10.379195 -62.619901 -61.233855 39.277141 154.961948 -76.372425 -130.834880 -5.310424 -22.168826 3.908953 22.800955 7.939140 10.203788 51.935336 7.450793 -3.277045 -52.544318 38.376154 -29.472571 -1.838680 9.182338 -11.043984 
-13.650812 -1.711286 86.114655 -122.967453 17.953536 94.554263 31.972293 12.053344 -28.893768 -6.884184 3.230782 51.103269 -0.493622 9.999439 -33.620059 nan nan nan -2.738800 -7.840997 -30.112820 10.903218 -18.904067 23.071863 4.129385 -0.822948 -1.151824 nan nan nan -20.845925 8.291833 18.022837 4.261964 -6.228575 17.089687 2.206700 -1.870166 -13.147328 9.977315 -1.710066 14.615254 25.253298 -22.515938 6.948194 -16.018084 -20.140522 10.318338 -62.682989 -61.175721 39.268884 154.260361 -76.260397 -130.111989 -5.515697 -22.166984 3.912311 22.768741 7.730662 10.118783 51.989571 7.728155 -3.207521 -53.312118 38.689883 -29.782051 -1.838529 8.996324 -10.761461 
-13.704496 -1.668446 86.200386 -123.154928 17.786187 94.350080 31.881585 12.058387 -28.401420 -6.902705 3.272551 50.734569 -0.471638 9.925765 -33.542549 nan nan nan -2.822536 -7.759394 -29.847368 10.847466 -18.686026 22.939615 4.229137 -0.818393 -1.140602 nan nan nan -20.854355 8.175422 17.946727 4.271832 -6.153582 17.005589 2.186249 -1.808967 -13.064719 9.948878 -1.677809 14.754613 25.131065 -22.458339 6.981519 -15.997242 -19.882808 10.265580 -62.601988 -61.091578 39.082921 153.717128 -76.101073 -129.585840 -5.689172 -22.072506 3.949122 22.654325 7.569103 10.025422 52.095336 7.979712 -3.155264 -54.190577 39.136492 -30.446641 -1.557670 8.575951 -10.911057 
-13.748413 -1.635854 86.267143 -123.222856 17.596318 94.283045 31.759480 12.049947 -28.162235 -6.928237 3.343658 50.481350 -0.394389 9.882032 -33.422988 nan nan nan -2.940070 -7.750778 -29.721792 10.793996 -18.518730 22.843886 4.324006 -0.827732 -1.143528 nan nan nan -20.797769 8.034041 17.741927 4.277929 -6.088093 16.912170 2.196367 -1.826851 -12.906398 9.892500 -1.710059 14.841480 25.011914 -22.355834 7.038785 -15.992053 -19.744690 10.187548 -62.418167 -60.955229 38.760816 153.053965 -75.912562 -128.879036 -5.813053 -21.954495 3.950700 22.482351 7.415768 9.849222 52.165660 8.144800 -3.212431 -54.981630 39.668738 -31.193008 -1.027990 8.073123 -11.080555 
-13.801236 -1.637002 86.319504 -123.138006 17.381642 94.323835 31.503582 11.943483 -28.140533 -6.878358 3.357387 50.299207 -0.224220 9.901433 -33.374841 nan nan nan -3.142036 -7.908708 -29.646890 10.808672 -18.419900 22.749395 4.417267 -0.764346 -1.145187 nan nan nan -20.606424 7.933591 17.482512 4.301563 -6.205113 17.035326 2.164085 -1.927793 -12.945230 9.862955 -1.918528 14.796212 24.808073 -22.279414 7.410033 -15.987028 -19.626731 10.139435 -62.482216 -60.723110 38.613224 152.366244 -75.648303 -128.091101 -5.973487 -21.672511 3.927801 22.500204 7.178810 9.693218 51.956649 8.335509 -3.226990 -55.656999 40.123440 -31.643746 -0.824961 7.732162 -10.397073 
-13.875645 -1.608181 86.406738 -123.110187 17.126518 94.213253 31.240180 11.805747 -27.853545 -6.910133 3.394197 50.004931 -0.147370 9.994815 -33.301992 nan nan nan -3.365791 -8.068261 -29.405185 10.817598 -18.233670 22.675862 4.408346 -0.674188 -1.218729 nan nan nan -20.503839 7.816922 17.360911 4.281886 -6.351699 17.107878 2.102245 -1.955482 -12.975786 9.965440 -2.090172 14.723148 24.529848 -22.161338 7.889624 -15.897757 -19.324081 10.061545 -62.556967 -60.525335 38.490025 152.094102 -75.413136 -127.807462 -5.942905 -21.403460 3.855811 22.629101 6.902391 9.625074 51.765892 8.724350 -3.202006 -56.336386 40.606785 -32.146196 -0.832632 7.625270 -9.583172 
-13.957905 -1.543171 86.505196 -123.154146 16.891142 94.092281 31.034499 11.764063 -27.463690 -7.016304 3.461443 49.671916 -0.218640 10.058715 -33.280783 nan nan nan -3.531013 -8.137385 -29.141889 10.797962 -18.030591 22.543360 4.438901 -0.693676 -1.317279 nan nan nan -20.443956 7.646388 17.186621 4.287165 -6.409434 16.745941 2.068760 -1.947256 -12.597275 9.903233 -2.228828 14.917870 24.477756 -21.978884 8.010278 -15.876346 -19.045453 10.019703 -62.101203 -60.415152 37.956167 152.029794 -75.247270 -127.746719 -5.659504 -21.215825 3.542568 22.578571 6.752945 9.498289 51.811518 8.947870 -3.224634 -57.077494 41.264888 -32.618444 -0.981295 7.501309 -9.500104 
-14.050838 -1.505522 86.594109 -123.139424 16.694779 94.029171 30.824591 11.714119 -27.164504 -7.055895 3.461098 49.355020 -0.355187 10.008330 -33.255219 nan nan nan -3.661080 -8.214673 -28.918674 10.752134 -17.930764 22.382985 4.629813 -0.706173 -1.265595 nan nan nan -20.245635 7.401919 17.094718 4.326418 -6.503736 16.048867 2.078581 -1.943157 -12.024223 9.564928 -2.343904 15.411118 24.581019 -21.724084 7.616782 -15.981956 -18.780220 10.063482 -61.643119 -60.343906 37.267507 151.818548 -75.100172 -127.641668 -5.674651 -21.373181 3.159882 22.382225 6.774830 9.450654 51.797243 9.057757 -3.502658 -57.745543 41.922019 -32.961453 -0.775764 7.641236 -9.352547 
-14.156482 -1.462409 86.705894 -123.175690 16.475616 93.885433 30.608297 11.651735 -26.718000 -7.049771 3.442734 48.940462 -0.395149 9.894484 -33.190877 nan nan nan -3.779070 -8.227945 -28.609041 10.637842 -17.841659 22.178498 4.880760 -0.686563 -1.207746 nan nan nan -20.127061 7.201132 17.048113 4.394407 -6.594770 15.598507 2.097448 -1.950955 -11.757741 9.291225 -2.382148 15.840078 24.626376 -21.432826 7.316266 -16.113134 -18.420882 10.247141 -61.459698 -60.274178 36.704554 151.533932 -74.952632 -127.533556 -6.025906 -21.605944 2.908627 22.348018 6.844082 9.583903 51.634756 9.336374 -3.923471 -58.481814 42.365541 -33.996931 -0.299346 7.918176 -9.106727 
